<svg xmlns="http://www.w3.org/2000/svg"  viewBox="0 0 128 128" width="64px" height="64px"><path d="M 64.5625 8.9960938 C 64.110992 8.9867676 63.655469 8.9875 63.199219 9 C 47.899219 9.5 36 22.399609 36 37.599609 L 36 59 L 28.300781 59 C 23.700781 59 19.599609 62.400391 19.099609 66.900391 C 18.599609 71.600391 21.7 75.699219 26 76.699219 L 26 84 C 26 105.3 43.500391 122.5 64.900391 122 C 85.600391 121.5 102 104.00078 102 83.300781 L 102 76.800781 C 106.3 75.800781 109.50039 71.7 108.90039 67 C 108.40039 62.4 104.29922 59.099609 99.699219 59.099609 L 42 59.099609 L 42 37.5 C 42 25.6 51.199219 15.4 63.199219 15 C 74.799219 14.6 84.600391 23.200391 85.900391 34.400391 C 86.100391 35.900391 87.400391 37 88.900391 37 C 90.700391 37 92.100391 35.399219 91.900391 33.699219 C 90.156641 19.942969 78.559235 9.2852051 64.5625 8.9960938 z M 28 65 L 100 65 C 101.7 65 103 66.3 103 68 C 103 69.7 101.7 71 100 71 L 28 71 C 26.3 71 25 69.7 25 68 C 25 66.3 26.3 65 28 65 z M 32 77 L 96 77 L 96 84 C 96 101.6 81.6 116 64 116 C 46.4 116 32 101.6 32 84 L 32 77 z M 64 89 C 62.3 89 61 90.3 61 92 L 61 98 C 61 99.7 62.3 101 64 101 C 65.7 101 67 99.7 67 98 L 67 92 C 67 90.3 65.7 89 64 89 z"/></svg>